<svg width="139" height="19" viewBox="0 0 139 19" fill="none" xmlns="http://www.w3.org/2000/svg">
<path d="M2 9.31429V16H21V9.31429L11.2791 3L2 9.31429Z" stroke="#54B900" stroke-width="4"/>
<path d="M44.0234 18H34.1562V0.867188H44.0234V3.84375H37.7891V7.60547H43.5898V10.582H37.7891V15H44.0234V18ZM59.6427 13.2422C59.6427 14.7891 59.0841 16.0078 57.9669 16.8984C56.8575 17.7891 55.3106 18.2344 53.3263 18.2344C51.4981 18.2344 49.8809 17.8906 48.4747 17.2031V13.8281C49.6309 14.3438 50.6075 14.707 51.4044 14.918C52.2091 15.1289 52.9434 15.2344 53.6075 15.2344C54.4044 15.2344 55.0138 15.082 55.4356 14.7773C55.8653 14.4727 56.0802 14.0195 56.0802 13.418C56.0802 13.082 55.9864 12.7852 55.7989 12.5273C55.6114 12.2617 55.3341 12.0078 54.9669 11.7656C54.6075 11.5234 53.8692 11.1367 52.752 10.6055C51.7052 10.1133 50.92 9.64062 50.3966 9.1875C49.8731 8.73438 49.4552 8.20703 49.1427 7.60547C48.8302 7.00391 48.6739 6.30078 48.6739 5.49609C48.6739 3.98047 49.1856 2.78906 50.2091 1.92188C51.2403 1.05469 52.6622 0.621094 54.4747 0.621094C55.3653 0.621094 56.213 0.726562 57.0177 0.9375C57.8302 1.14844 58.6778 1.44531 59.5606 1.82812L58.3888 4.65234C57.4747 4.27734 56.7169 4.01563 56.1153 3.86719C55.5216 3.71875 54.9356 3.64453 54.3575 3.64453C53.67 3.64453 53.1427 3.80469 52.7755 4.125C52.4083 4.44531 52.2247 4.86328 52.2247 5.37891C52.2247 5.69922 52.2989 5.98047 52.4473 6.22266C52.5958 6.45703 52.8302 6.6875 53.1505 6.91406C53.4786 7.13281 54.2481 7.53125 55.4591 8.10938C57.0606 8.875 58.1583 9.64453 58.752 10.418C59.3458 11.1836 59.6427 12.125 59.6427 13.2422ZM71.2775 18H67.6447V3.89062H62.9923V0.867188H75.9298V3.89062H71.2775V18ZM90.9748 18L89.7327 13.9219H83.4866L82.2444 18H78.3303L84.3772 0.796875H88.8186L94.8889 18H90.9748ZM88.8655 10.875C87.717 7.17969 87.0686 5.08984 86.9202 4.60547C86.7795 4.12109 86.678 3.73828 86.6155 3.45703C86.3577 4.45703 85.6194 6.92969 84.4006 10.875H88.8655ZM105.586 18H101.953V3.89062H97.3011V0.867188H110.239V3.89062H105.586V18ZM114.795 18V0.867188H118.428V18H114.795ZM138.442 18H134.317L129.829 10.7812L128.293 11.8828V18H124.661V0.867188H128.293V8.70703L129.723 6.69141L134.364 0.867188H138.395L132.418 8.44922L138.442 18Z" fill="#404040"/>
</svg>
